<svg xmlns="http://www.w3.org/2000/svg" viewBox="0 0 240 240" role="img" aria-label="Kit and accessories">
  <defs>
    <linearGradient id="bg" x1="22" y1="22" x2="218" y2="218">
      <stop stop-color="#fffaf0"/>
      <stop offset="1" stop-color="#f1ecff"/>
    </linearGradient>
    <linearGradient id="box" x1="54" y1="78" x2="190" y2="192">
      <stop stop-color="#9564cc"/>
      <stop offset="1" stop-color="#5b358b"/>
    </linearGradient>
  </defs>
  <rect width="240" height="240" rx="42" fill="url(#bg)"/>
  <rect x="52" y="82" width="136" height="104" rx="22" fill="url(#box)"/>
  <path d="M52 111h136" stroke="#fff4d8" stroke-width="10"/>
  <rect x="94" y="60" width="52" height="38" rx="14" fill="#2d1a45"/>
  <rect x="79" y="129" width="32" height="43" rx="13" fill="#fff8e6"/>
  <rect x="128" y="129" width="32" height="43" rx="13" fill="#fff8e6"/>
  <path d="M95 139c10 13 12 22 7 27-4 4-10 4-14 0-6-5-3-14 7-27Z" fill="#77b86d"/>
  <path d="M144 139c10 13 12 22 7 27-4 4-10 4-14 0-6-5-3-14 7-27Z" fill="#f0b341"/>
</svg>
